<svg xmlns="http://www.w3.org/2000/svg" viewBox="36 -4 793 625.5" font-family="'iA Writer Mono', 'SF Mono', Menlo, Consolas, monospace">
<rect x="36" y="-4" width="793" height="625.5" fill="#ffffff"/>
<text x="60" y="40" font-size="20" fill="#1e1e1e">insert 10, 20, 30, 40 in ascending order</text>
<text x="60" y="88" font-size="18" fill="#1e1e1e">naive BST — height n</text>
<text x="60" y="109" font-size="14" fill="#e03131">find(40) = 4 hops</text>
<rect x="75" y="135" width="90" height="50" rx="12" fill="#ffc9c9" stroke="#1e1e1e" stroke-width="2"/>
<text x="109.92" y="166" font-size="18" fill="#1e1e1e">10</text>
<path d="M 145 185 L 165 225" fill="none" stroke="#1e1e1e" stroke-width="2" stroke-linecap="round"/>
<path d="M 165 225 L 155.50796470982849 217.65825183964074" fill="none" stroke="#1e1e1e" stroke-width="2" stroke-linecap="round"/>
<path d="M 165 225 L 164.82182264581547 213.00132287164723" fill="none" stroke="#1e1e1e" stroke-width="2" stroke-linecap="round"/>
<rect x="145" y="225" width="90" height="50" rx="12" fill="#ffc9c9" stroke="#1e1e1e" stroke-width="2"/>
<text x="179.92" y="256" font-size="18" fill="#1e1e1e">20</text>
<path d="M 215 275 L 235 315" fill="none" stroke="#1e1e1e" stroke-width="2" stroke-linecap="round"/>
<path d="M 235 315 L 225.50796470982849 307.65825183964074" fill="none" stroke="#1e1e1e" stroke-width="2" stroke-linecap="round"/>
<path d="M 235 315 L 234.82182264581547 303.00132287164723" fill="none" stroke="#1e1e1e" stroke-width="2" stroke-linecap="round"/>
<rect x="215" y="315" width="90" height="50" rx="12" fill="#ffc9c9" stroke="#1e1e1e" stroke-width="2"/>
<text x="249.92" y="346" font-size="18" fill="#1e1e1e">30</text>
<path d="M 285 365 L 305 405" fill="none" stroke="#1e1e1e" stroke-width="2" stroke-linecap="round"/>
<path d="M 305 405 L 295.5079647098285 397.65825183964074" fill="none" stroke="#1e1e1e" stroke-width="2" stroke-linecap="round"/>
<path d="M 305 405 L 304.8218226458155 393.00132287164723" fill="none" stroke="#1e1e1e" stroke-width="2" stroke-linecap="round"/>
<rect x="285" y="405" width="90" height="50" rx="12" fill="#ffc9c9" stroke="#1e1e1e" stroke-width="2"/>
<text x="319.92" y="436" font-size="18" fill="#1e1e1e">40</text>
<text x="60" y="574" font-size="14" fill="#868e96">a linked list wearing</text>
<text x="60" y="594" font-size="14" fill="#868e96">a tree costume</text>
<text x="520" y="88" font-size="18" fill="#1e1e1e">red-black — height ~log n</text>
<text x="520" y="109" font-size="14" fill="#2f9e44">find(40) = 3 hops</text>
<rect x="605" y="155" width="90" height="50" rx="12" fill="#b2f2bb" stroke="#1e1e1e" stroke-width="2"/>
<text x="639.92" y="186" font-size="18" fill="#1e1e1e">20</text>
<rect x="495" y="275" width="90" height="50" rx="12" fill="#b2f2bb" stroke="#1e1e1e" stroke-width="2"/>
<text x="529.92" y="306" font-size="18" fill="#1e1e1e">10</text>
<rect x="715" y="275" width="90" height="50" rx="12" fill="#b2f2bb" stroke="#1e1e1e" stroke-width="2"/>
<text x="749.92" y="306" font-size="18" fill="#1e1e1e">30</text>
<rect x="715" y="395" width="90" height="50" rx="12" fill="#b2f2bb" stroke="#1e1e1e" stroke-width="2"/>
<text x="749.92" y="426" font-size="18" fill="#1e1e1e">40</text>
<path d="M 625 205 L 565 275" fill="none" stroke="#1e1e1e" stroke-width="2" stroke-linecap="round"/>
<path d="M 565 275 L 568.0829640807921 263.4027877282277" fill="none" stroke="#1e1e1e" stroke-width="2" stroke-linecap="round"/>
<path d="M 565 275 L 575.9892623268067 270.17961479624034" fill="none" stroke="#1e1e1e" stroke-width="2" stroke-linecap="round"/>
<path d="M 675 205 L 735 275" fill="none" stroke="#1e1e1e" stroke-width="2" stroke-linecap="round"/>
<path d="M 735 275 L 724.0107376731933 270.17961479624034" fill="none" stroke="#1e1e1e" stroke-width="2" stroke-linecap="round"/>
<path d="M 735 275 L 731.9170359192079 263.4027877282277" fill="none" stroke="#1e1e1e" stroke-width="2" stroke-linecap="round"/>
<path d="M 760 325 L 760 395" fill="none" stroke="#1e1e1e" stroke-width="2" stroke-linecap="round"/>
<path d="M 760 395 L 754.7933951305893 384.18837358517095" fill="none" stroke="#1e1e1e" stroke-width="2" stroke-linecap="round"/>
<path d="M 760 395 L 765.2066048694107 384.18837358517095" fill="none" stroke="#1e1e1e" stroke-width="2" stroke-linecap="round"/>
<text x="520" y="514" font-size="14" fill="#868e96">rotations after each insert</text>
<text x="520" y="534" font-size="14" fill="#868e96">kept the height down</text>
</svg>