<svg xmlns="http://www.w3.org/2000/svg" viewBox="16 -4 781.12 645.5" font-family="'iA Writer Mono', 'SF Mono', Menlo, Consolas, monospace">
<rect x="16" y="-4" width="781.12" height="645.5" fill="#ffffff"/>
<text x="40" y="40" font-size="20" fill="#1e1e1e">vector&lt;int&gt; — one contiguous block</text>
<rect x="40" y="60" width="90" height="50" rx="12" fill="#a5d8ff" stroke="#1e1e1e" stroke-width="2"/>
<text x="74.92" y="90" font-size="18" fill="#1e1e1e">10</text>
<text x="71.56" y="130" font-size="12" fill="#868e96">1000</text>
<rect x="130" y="60" width="90" height="50" rx="12" fill="#a5d8ff" stroke="#1e1e1e" stroke-width="2"/>
<text x="164.92" y="90" font-size="18" fill="#1e1e1e">20</text>
<text x="161.56" y="130" font-size="12" fill="#868e96">1004</text>
<rect x="220" y="60" width="90" height="50" rx="12" fill="#a5d8ff" stroke="#1e1e1e" stroke-width="2"/>
<text x="254.92" y="90" font-size="18" fill="#1e1e1e">30</text>
<text x="251.56" y="130" font-size="12" fill="#868e96">1008</text>
<rect x="310" y="60" width="90" height="50" rx="12" fill="#a5d8ff" stroke="#1e1e1e" stroke-width="2"/>
<text x="344.92" y="90" font-size="18" fill="#1e1e1e">40</text>
<text x="341.56" y="130" font-size="12" fill="#868e96">1012</text>
<rect x="400" y="60" width="90" height="50" rx="12" fill="#a5d8ff" stroke="#1e1e1e" stroke-width="2"/>
<text x="434.92" y="90" font-size="18" fill="#1e1e1e">50</text>
<text x="431.56" y="130" font-size="12" fill="#868e96">1016</text>
<text x="40" y="164" font-size="14" fill="#868e96">a[i] = *(base + i * 4)   — arithmetic, not lookup</text>
<text x="40" y="230" font-size="20" fill="#1e1e1e">set&lt;int&gt; — scattered heap nodes, glued by pointers</text>
<rect x="40" y="260" width="150" height="60" rx="12" fill="#e9ecef" stroke="#1e1e1e" stroke-width="2"/>
<text x="70.19999999999999" y="288" font-size="16" fill="#1e1e1e">set object</text>
<text x="57.879999999999995" y="304" font-size="12" fill="#868e96">stack: root, size</text>
<rect x="240" y="250" width="460" height="330" rx="12" fill="none" stroke="#1e1e1e" stroke-width="2" stroke-dasharray="8 6"/>
<text x="255" y="271" font-size="13" fill="#868e96">heap</text>
<rect x="425" y="285" width="90" height="50" rx="12" fill="#ffec99" stroke="#1e1e1e" stroke-width="2"/>
<text x="459.92" y="316" font-size="18" fill="#1e1e1e">20</text>
<text x="443.12" y="353" font-size="12" fill="#868e96">0x7f9c40</text>
<rect x="295" y="405" width="90" height="50" rx="12" fill="#ffec99" stroke="#1e1e1e" stroke-width="2"/>
<text x="329.92" y="436" font-size="18" fill="#1e1e1e">10</text>
<text x="313.12" y="473" font-size="12" fill="#868e96">0x7f2a10</text>
<rect x="555" y="405" width="90" height="50" rx="12" fill="#ffec99" stroke="#1e1e1e" stroke-width="2"/>
<text x="589.92" y="436" font-size="18" fill="#1e1e1e">30</text>
<text x="573.12" y="473" font-size="12" fill="#868e96">0x7f3b88</text>
<rect x="555" y="515" width="90" height="50" rx="12" fill="#ffec99" stroke="#1e1e1e" stroke-width="2"/>
<text x="589.92" y="546" font-size="18" fill="#1e1e1e">40</text>
<text x="573.12" y="583" font-size="12" fill="#868e96">0x7fd104</text>
<path d="M 190 290 L 425 300" fill="none" stroke="#1e1e1e" stroke-width="2" stroke-linecap="round"/>
<path d="M 425 300 L 413.9767916873242 304.7422440358289" fill="none" stroke="#1e1e1e" stroke-width="2" stroke-linecap="round"/>
<path d="M 425 300 L 414.4195063485249 294.33844949761146" fill="none" stroke="#1e1e1e" stroke-width="2" stroke-linecap="round"/>
<path d="M 445 335 L 365 405" fill="none" stroke="#1e1e1e" stroke-width="2" stroke-linecap="round"/>
<path d="M 365 405 L 369.70800477382 393.9621247040163" fill="none" stroke="#1e1e1e" stroke-width="2" stroke-linecap="round"/>
<path d="M 365 405 L 376.5651513695352 401.7988636705479" fill="none" stroke="#1e1e1e" stroke-width="2" stroke-linecap="round"/>
<path d="M 495 335 L 575 405" fill="none" stroke="#1e1e1e" stroke-width="2" stroke-linecap="round"/>
<path d="M 575 405 L 563.4348486304648 401.7988636705479" fill="none" stroke="#1e1e1e" stroke-width="2" stroke-linecap="round"/>
<path d="M 575 405 L 570.29199522618 393.9621247040163" fill="none" stroke="#1e1e1e" stroke-width="2" stroke-linecap="round"/>
<path d="M 600 455 L 600 515" fill="none" stroke="#1e1e1e" stroke-width="2" stroke-linecap="round"/>
<path d="M 600 515 L 594.7933951305893 504.18837358517095" fill="none" stroke="#1e1e1e" stroke-width="2" stroke-linecap="round"/>
<path d="M 600 515 L 605.2066048694107 504.18837358517095" fill="none" stroke="#1e1e1e" stroke-width="2" stroke-linecap="round"/>
<text x="240" y="614" font-size="14" fill="#868e96">addresses are unrelated — order lives in the pointers, not in memory</text>
</svg>